<svg id="Capa_1" data-name="Capa 1" xmlns="http://www.w3.org/2000/svg" viewBox="0 0 309.36 91.44">
  <defs>
    <style>
      .cls-1 {
        fill: #2a2ade;
        fill-rule: evenodd;
      }
    </style>
  </defs>
  <title>aps vector</title>
  <g>
    <path class="cls-1" d="M-19.194,135.76c1.18-.275,1.648-.729,2.64-.96a12.083,12.083,0,0,0,1.2,2.16c-1.18.275-1.648.729-2.64.96-.4-.754-.785-1.376-1.2-2.16Zm11.52-4.8a6.53,6.53,0,0,1,2.64-.96,20,20,0,0,0,1.2,1.92,11.048,11.048,0,0,1-2.64.96c-.428-.639-.772-1.281-1.2-1.92Zm-13.44-3.6c1.468-.777,7.908-3.519,8.88-3.6,1.333,2.52,2.987,4.68,4.32,7.2-1.935.451-6.658,3.082-8.88,3.6-.211-.792-3.746-6.115-4.32-7.2Zm-3.84-1.2a12.7,12.7,0,0,0,2.4-.96,12.12,12.12,0,0,0,1.2,2.16c-.992.231-1.46.685-2.64.96a5.113,5.113,0,0,1-.96-2.16Zm28.8-.24c.992-.231,1.46-.686,2.64-.96.415.784.8,1.406,1.2,2.16a11.039,11.039,0,0,0-2.64.96c-.415-.784-.8-1.407-1.2-2.16Zm-13.44-3.6,4.32,7.2c.972-.081,7.412-2.823,8.88-3.6-.838-1.585-4.035-6.132-4.32-7.2-2.222.518-6.945,3.149-8.88,3.6Zm-4.08-.96c.992-.231,1.46-.685,2.64-.96a20.012,20.012,0,0,0,1.2,1.92c-.864.457-1.8.753-2.64,1.2a8.779,8.779,0,0,0-1.2-2.16Zm29.04-.48a11.042,11.042,0,0,0,2.64-.96,8.792,8.792,0,0,0,1.2,2.16c-.992.231-1.46.685-2.64.96l-.91-1.49a5.61,5.61,0,0,1-.29-.67Zm-42.48-3.12c.665,1.257,1.441,2.369,2.171,3.589a27.614,27.614,0,0,1,2.149,3.611,93.93,93.93,0,0,0,8.88-3.6c-1.333-2.52-2.987-4.68-4.32-7.2-1.462.122-7,3.162-8.88,3.6Zm29.04-.24c.655-.347,8.139-3.6,8.4-3.6.692,0,2,2.485,2.563,3.437a30.25,30.25,0,0,1,2.237,3.763c-2.222.518-6.945,3.149-8.88,3.6-.285-1.069-3.481-5.615-4.32-7.2Zm-32.88-.96c1.157-.1,1.106-.475,2.16-.72a4.769,4.769,0,0,1,1.44,1.92,12.718,12.718,0,0,1-2.4.96,3.021,3.021,0,0,1-1.2-2.16Zm28.8-.24a11.048,11.048,0,0,0,2.64-.96c.415.784.8,1.407,1.2,2.16-.947.221-1.692.739-2.64.96-.415-.784-.8-1.407-1.2-2.16Zm29.04-.24a18.3,18.3,0,0,1,2.4-.96,3.021,3.021,0,0,1,1.2,2.16,12.7,12.7,0,0,0-2.4.96,12.093,12.093,0,0,0-1.2-2.16Zm-42.48-3.36c1.3-.109,7.467-3.271,8.88-3.6.423,1.583,3.992,6.032,4.32,7.44a81.793,81.793,0,0,0-8.64,3.6l-4.56-7.44Zm29.04-.24c1.333,2.52,2.987,4.68,4.32,7.2a23.167,23.167,0,0,0,4.493-1.746c1.494-.641,3-1.189,4.386-1.854-.665-1.257-1.441-2.369-2.171-3.589a27.68,27.68,0,0,1-2.149-3.611c-.878.073-5.287,2.12-6.653,2.706a15.5,15.5,0,0,1-2.227.894Zm-33.12-.72c1.18-.275,1.648-.729,2.64-.96a12.053,12.053,0,0,1,1.2,2.16c-1.18.275-1.648.729-2.64.96a8.786,8.786,0,0,0-1.2-2.16Zm29.04-.24a11.039,11.039,0,0,1,2.64-.96c.428.639.772,1.281,1.2,1.92a12.719,12.719,0,0,1-2.4.96,7.708,7.708,0,0,1-1.44-1.92Zm29.04-.48c1.18-.275,1.648-.729,2.64-.96a12.1,12.1,0,0,0,1.2,2.16c-.947.221-1.693.739-2.64.96-.4-.754-.785-1.376-1.2-2.16Zm-71.52-2.88c1.3-.109,7.467-3.271,8.88-3.6,1.334,2.52,2.987,4.68,4.32,7.2-2.361,1.25-6.175,2.536-8.64,3.84-1.093-2.065-3.307-5.072-4.56-7.44Zm29.04-.24c.839,1.585,4.035,6.131,4.32,7.2,1.3-.109,7.467-3.271,8.88-3.6a52.757,52.757,0,0,0-4.56-7.2l-8.64,3.6Zm29.04-.48c.878-.073,5.287-2.12,6.653-2.706a15.5,15.5,0,0,1,2.226-.894,5.284,5.284,0,0,0,1.006,1.874l3.314,5.566a27.058,27.058,0,0,0-4.478,1.762l-4.4,1.838a20.558,20.558,0,0,0-2.113-3.647l-2.207-3.793Zm-61.92-.24a12.668,12.668,0,0,1,2.4-.96,8.785,8.785,0,0,1,1.2,2.16c-2.489.207-2.05,2.267-3.6-1.2Zm29.04-.48a8.682,8.682,0,0,0,2.4-.96,12.115,12.115,0,0,0,1.2,2.16,11.029,11.029,0,0,1-2.64.96,6.078,6.078,0,0,1-.96-2.16Zm28.8-.24c.947-.221,1.693-.74,2.64-.96.415.784.8,1.406,1.2,2.16-1.18.275-1.648.729-2.64.96a12.073,12.073,0,0,0-1.2-2.16Zm-42.48-3.12c1.571,2.346,2.989,4.854,4.56,7.2l8.64-3.6c-.328-1.408-3.9-5.857-4.32-7.44-2.454,1.3-6.35,2.626-8.88,3.84Zm29.04-.48A31.474,31.474,0,0,0,11.9,101.1a34.722,34.722,0,0,1,4.423-1.817c.211.791,3.746,6.115,4.32,7.2-.655.347-8.139,3.6-8.4,3.6-.726,0-1.747-2.246-2.542-3.457-.85-1.294-1.555-2.415-2.258-3.743Zm-32.88-.72a12.718,12.718,0,0,0,2.4-.96c.4.753.785,1.376,1.2,2.16-.992.231-1.46.685-2.64.96-.206-.772-.139-.356-.47-.97a11.885,11.885,0,0,1-.49-1.19Zm58.08-.72a12.726,12.726,0,0,0,2.4-.96,12.1,12.1,0,0,0,1.2,2.16,18.348,18.348,0,0,1-2.4.96,3.022,3.022,0,0,1-1.2-2.16Zm-29.28.48c.947-.221,1.693-.739,2.64-.96a12.074,12.074,0,0,1,1.2,2.16,11.038,11.038,0,0,0-2.64.96,6.3,6.3,0,0,0-1.2-2.16Zm-42.24-3.36c.127.987,1.45,2.832,2.113,3.886.745,1.184,1.574,2.358,2.207,3.553,1.385-.665,2.892-1.213,4.386-1.853a32.107,32.107,0,0,1,4.253-1.747,5.575,5.575,0,0,0-1.057-2.063l-3.263-5.377-4.354,1.886a30.354,30.354,0,0,1-4.286,1.714Zm28.8-.24a31.389,31.389,0,0,0,4.457-1.783A34.751,34.751,0,0,1-1.194,94.72c.574,1.085,4.109,6.409,4.32,7.2l-4.354,1.886c-1.156.477-3.307,1.613-4.526,1.714-.285-1.069-3.481-5.615-4.32-7.2Zm29.04-.24c.52.777,4.115,6.32,4.32,7.2,2.222-.518,6.945-3.149,8.88-3.6-.285-1.069-3.482-5.615-4.32-7.2-1.219.1-3.37,1.237-4.526,1.714-.673.278-1.462.614-2.187.933-.68.3-1.52.611-2.167.953Zm-61.92-.48a18.26,18.26,0,0,0,2.4-.96,8.786,8.786,0,0,1,1.2,2.16,18.279,18.279,0,0,0-2.4.96l-1.2-2.16Zm29.04-.24a8.682,8.682,0,0,1,2.4-.96,19.952,19.952,0,0,1,1.2,1.92,6.536,6.536,0,0,1-2.64.96l-.823-1.577c-.026-.058-.1-.273-.136-.344Zm29.04-.48a12.719,12.719,0,0,0,2.4-.96c.415.784.8,1.407,1.2,2.16-.992.231-1.46.685-2.64.96-.3-1.112-.794-.871-.96-2.16Zm-42.72-3.12c1.935-.451,6.658-3.082,8.88-3.6l3.314,5.326a5.28,5.28,0,0,1,1.006,1.874l-8.64,3.6-4.56-7.2Zm29.04-.24C2.237,94.7,3,95.9,3.77,97.2l2.237,3.523,8.64-3.6c-.358-1.537-4-6.236-4.32-7.44L5.8,91.634c-.673.277-1.462.614-2.187.932-.68.3-1.52.611-2.167.953Zm-32.88-.96c1.423-.118,1.044-.685,2.64-.72a11.335,11.335,0,0,0,.96,1.92,6.534,6.534,0,0,1-2.64.96l-.96-2.16Zm29.04-.24a18.263,18.263,0,0,0,2.4-.96,12.093,12.093,0,0,1,1.2,2.16c-.947.221-1.692.739-2.64.96l-.96-2.16Zm29.04-.24a8.685,8.685,0,0,1,2.4-.96c.428.639.772,1.281,1.2,1.92a6.535,6.535,0,0,1-2.64.96l-.96-1.92Zm-71.52-2.88c1.233-.652,7.793-3.576,8.88-3.6.2.88,3.8,6.423,4.32,7.2-2.222.518-6.945,3.149-8.88,3.6-.772-1.152-1.425-2.341-2.207-3.553-.413-.639-.7-1.128-1.107-1.773L-44.874,89.2Zm29.04-.48a4.824,4.824,0,0,0,1.007,2.114c.421.644.694,1.117,1.107,1.773.745,1.184,1.574,2.358,2.207,3.553l8.64-3.6c-.077-.921-.578-1.316-1.036-2.084L-7.194,85.12l-8.64,3.6Zm28.8-.24,8.64-3.6c.741.543,2.669,3.988,3.458,5.183a8.076,8.076,0,0,1,1.1,2.017,93.994,93.994,0,0,1-8.88,3.6c-.285-1.069-3.481-5.615-4.32-7.2ZM-48.954,88a8.674,8.674,0,0,0,2.4-.96,8.793,8.793,0,0,1,1.2,2.16,12.686,12.686,0,0,1-2.4.96l-1.2-2.16Zm29.04-.24a18.3,18.3,0,0,1,2.4-.96,6.3,6.3,0,0,1,1.2,2.16,12.7,12.7,0,0,0-2.4.96l-1.2-2.16Zm29.04-.48c1.423-.118,1.044-.684,2.64-.72a7,7,0,0,0,.96,1.92,8.812,8.812,0,0,1-2.64.96c-.3-1.112-.795-.871-.96-2.16Zm-42.48-3.12a8.968,8.968,0,0,0,.481,1.2L-31.194,88c.764,1.156,1.5,2.347,2.16,3.6a81.919,81.919,0,0,1,8.64-3.6c-.094-1.124-3.67-6.469-4.32-7.44-1.125.262-7.5,3.336-8.64,3.6Zm28.8-.24,8.64-3.6c.954.639,4.387,6.458,4.56,7.2l-8.64,3.6c-1.571-2.346-2.989-4.854-4.56-7.2Zm-32.88-.72a8.8,8.8,0,0,1,2.64-.96c.237.889.72,1.129.96,2.16a8.672,8.672,0,0,0-2.4.96c-.4-.754-.785-1.376-1.2-2.16Zm29.04-.48a8.686,8.686,0,0,0,2.4-.96,12.1,12.1,0,0,1,1.2,2.16,11.026,11.026,0,0,1-2.64.96l-.96-2.16Zm29.04-.24a18.249,18.249,0,0,1,2.4-.96,8.78,8.78,0,0,1,1.2,2.16,8.678,8.678,0,0,0-2.4.96l-1.2-2.16Zm-71.52-2.88a64.87,64.87,0,0,0,4.32,7.2,27.1,27.1,0,0,0,4.478-1.762c.788-.35,1.395-.61,2.175-.945a15.492,15.492,0,0,1,2.227-.893c-.771-1.152-1.425-2.341-2.207-3.553-.413-.639-.7-1.128-1.107-1.773A5.281,5.281,0,0,1-41.994,76a93.914,93.914,0,0,0-8.88,3.6Zm29.04-.48a81.822,81.822,0,0,0,8.64-3.6l3.284,5.356c.459.767.96,1.163,1.036,2.084-1.136.265-7.515,3.338-8.64,3.6-.727-1.373-4.15-6.116-4.32-7.44Zm28.8-.24c.839,1.585,4.035,6.131,4.32,7.2,1.087-.024,7.647-2.948,8.88-3.6-.285-1.069-3.481-5.615-4.32-7.2-1.413.329-7.575,3.491-8.88,3.6Zm-61.92-.24a8.812,8.812,0,0,1,2.64-.96,6.138,6.138,0,0,1,.96,2.16c-1.157.1-1.107.475-2.16.72a4.773,4.773,0,0,1-1.44-1.92Zm29.04-.48a12.711,12.711,0,0,0,2.4-.96,6.3,6.3,0,0,1,1.2,2.16,18.288,18.288,0,0,1-2.4.96l-1.2-2.16Zm29.04-.24a8.814,8.814,0,0,1,2.64-.96c.284,1.219.676.941.96,2.16-1.423.118-1.043.684-2.64.72-.2-.763-.119-.352-.48-.96l-.48-.96Zm-42.48-3.36,8.64-3.6c.772,1.152,1.425,2.341,2.207,3.553.613.949,2.026,2.843,2.113,3.887l-8.64,3.6c-1.718-3.246-2.923-4.313-4.32-7.44Zm29.04-.24A6.09,6.09,0,0,0-9.8,75.483c.185.31.32.533.544.9.426.689.715,1.11,1.11,1.77A15.028,15.028,0,0,0-5.754,81.52a15.479,15.479,0,0,0,2.227-.894L2.886,77.92c-1.571-2.346-2.989-4.854-4.56-7.2l-8.64,3.6Zm-33.12-.72c.992-.231,1.461-.685,2.64-.96.237.889.72,1.129.96,2.16a18.3,18.3,0,0,0-2.4.96c-.4-.754-.785-1.376-1.2-2.16Zm29.04-.24a6.533,6.533,0,0,1,2.64-.96c.295,1.1.86.951.96,2.16-1.423.118-1.043.684-2.64.72a7,7,0,0,0-.96-1.92Zm29.04-.48a12.706,12.706,0,0,0,2.4-.96,8.792,8.792,0,0,1,1.2,2.16,18.292,18.292,0,0,0-2.4.96l-1.2-2.16Zm-42.48-3.12,2.114,3.647c.745,1.184,1.574,2.358,2.206,3.553,2.222-.518,6.945-3.149,8.88-3.6-.839-1.585-4.035-6.131-4.32-7.2-1.087.09-5.24,2-6.713,2.647-.68.3-1.52.611-2.167.953Zm29.04-.48,6.473-2.647c.68-.3,1.52-.611,2.167-.953.657,1.242,4.221,6.254,4.32,7.44a32.087,32.087,0,0,0-4.253,1.746c-1.495.641-3,1.189-4.387,1.854-.665-1.257-1.441-2.369-2.171-3.589-.58-.968-2.013-2.789-2.149-3.851Zm-33.12-.72c1.254-.1,2.842-2.054,3.6,1.2a8.68,8.68,0,0,1-2.4.96c-.269-.4-.367-.541-.651-1.029-.06-.1-.257-.452-.26-.459l-.288-.672Zm29.04-.24c.992-.231,1.46-.685,2.64-.96.284,1.219.676.941.96,2.16a18.289,18.289,0,0,0-2.4.96A10.011,10.011,0,0,0-2.3,69.428l-.572-1.108Zm-13.44-3.6,8.64-3.6c1.571,2.346,2.989,4.854,4.56,7.2-1.963,1.039-6.932,2.809-8.88,3.84a27.653,27.653,0,0,0-2.149-3.611L-15.8,65.883a6.081,6.081,0,0,1-.517-1.163Zm-4.08-.96a11.034,11.034,0,0,1,2.64-.96c.295,1.1.86.951.96,2.16a12.724,12.724,0,0,0-2.4.96c-.415-.784-.8-1.407-1.2-2.16Zm29.04-.48c1.865-.155,1.994-1.689,3.069.051a3.4,3.4,0,0,1,.531,1.149,8.682,8.682,0,0,1-2.4.96l-1.2-2.16Zm-13.44-3.36,2.149,3.611c.731,1.22,1.507,2.332,2.171,3.589A34.768,34.768,0,0,0,3.949,65.3,31.383,31.383,0,0,1,8.406,63.52c-.574-1.085-4.109-6.409-4.32-7.2-1.1.025-3.564,1.253-4.553,1.687-1.388.609-3.016,1.22-4.327,1.913Zm-4.08-1.2c1.18-.275,1.648-.729,2.64-.96a6.31,6.31,0,0,0,1.2,2.16c-.947.221-1.693.739-2.64.96A9.9,9.9,0,0,0-8.3,59.828l-.572-1.108Zm11.52-4.8,1.224-.456c.679-.323.431-.422,1.416-.5a6.133,6.133,0,0,1,.96,2.16,8.687,8.687,0,0,0-2.4.96,12.1,12.1,0,0,0-1.2-2.16ZM.006,51.04h-260.4v2.64H2.406L.349,54.743c-.8.331-1.388.586-2.181.939s-1.395.61-2.175.945a15.521,15.521,0,0,1-2.227.893,7.047,7.047,0,0,1-1.68-2.64c-1.2.279-1.821.872-2.88.96.314,1.177,1.391,2.035,1.68,3.12-1.747.145-4.889,1.949-6.653,2.707a15.511,15.511,0,0,1-2.227.893,3.075,3.075,0,0,0-.67-1.25,14.079,14.079,0,0,1-.77-1.39c-1.408.117-1.731.692-2.88.96.574,1.084,1.137,1.853,1.68,2.88-1.323.635-2.765,1.175-4.217,1.783a34.771,34.771,0,0,1-4.423,1.817,6.346,6.346,0,0,1-1.68-2.64,14.364,14.364,0,0,0-2.88,1.2c.543,1.026,1.106,1.8,1.68,2.88-2.957.689-5.932,2.913-8.88,3.6a14.193,14.193,0,0,1-1.44-2.64c-1.1.091-1.845.719-2.88.96a17.678,17.678,0,0,0,1.68,2.88c-2.855,1.511-6.044,2.339-8.88,3.84a12.918,12.918,0,0,0-1.68-2.88c-.864.457-1.8.753-2.64,1.2.53,1,1.15,1.879,1.68,2.88-1.854.432-3.572,1.706-5.52,2.16.261.978.939,1.422,1.2,2.4a26.22,26.22,0,0,0,5.76-2.4c1.314,2.484,3.246,4.957,4.56,7.44a11.265,11.265,0,0,0-2.8,1.042A20.035,20.035,0,0,1-54.714,90.4c.293,1.1.91,1.154,1.2,2.4a40.168,40.168,0,0,0,5.76-2.4l3.314,5.327a4.889,4.889,0,0,1,1.006,2.114,23.056,23.056,0,0,0-5.28,2.16,12.1,12.1,0,0,0,1.2,2.16c2.135-.178,3.675-1.674,5.76-2.16,1.023,1.934,3.806,5.275,4.32,7.2a30.1,30.1,0,0,1-5.28,2.16,3.923,3.923,0,0,0,1.44,2.4c1.692-.394,3.588-1.766,5.28-2.16a36.159,36.159,0,0,1,4.56,7.2,29.039,29.039,0,0,1-5.28,2.16,6.579,6.579,0,0,0,1.2,2.4,20.788,20.788,0,0,0,2.914-1.166c.929-.384,2.028-.8,2.846-1.234a5.278,5.278,0,0,0,1.006,1.874c.41.645.694,1.134,1.107,1.773s.655,1.1,1.1,1.776a8.065,8.065,0,0,1,1.1,2.017c-1.948.454-3.666,1.728-5.52,2.16.475.9.964,1.5,1.44,2.4a29.661,29.661,0,0,1,5.76-2.4c.31,1.331,1.389,2.525,2.113,3.647.782,1.212,1.435,2.4,2.207,3.553a25.023,25.023,0,0,1-4.8,1.92h-236.88v2.88h237.12c1.919,0,4.212-2.231,6.24-2.4a11.469,11.469,0,0,0,1.92,3.36c.948-.221,1.693-.739,2.64-.96-.107-1.291-1.584-2.4-1.92-3.84,1.338-.111,7.248-2.864,8.64-3.6a40.97,40.97,0,0,1,2.16,3.6c.864-.458,1.8-.754,2.64-1.2-.319-1.37-1.6-2.411-1.92-3.6,1.386-.665,2.892-1.213,4.387-1.853a23.167,23.167,0,0,1,4.493-1.747,22.874,22.874,0,0,0,1.92,3.36c.992-.231,1.46-.685,2.64-.96-.117-1.4-1.586-2.407-1.92-3.84a60.771,60.771,0,0,0,8.64-3.6c.666.994,1.387,2.682,2.4,3.36a18.3,18.3,0,0,0,2.4-.96,4.453,4.453,0,0,0-.861-1.779,15.568,15.568,0,0,1-1.059-1.821l4.354-1.886c1.156-.477,3.307-1.613,4.526-1.714.335,1.254,1.329,2.243,1.92,3.36a11.025,11.025,0,0,1,2.64-.96c-.127-1.522-1.534-2.394-1.92-3.84,2.948-.687,5.923-2.911,8.88-3.6a11.465,11.465,0,0,0,1.92,3.36c1.18-.275,1.648-.729,2.64-.96-.105-1.264-1.349-2.521-1.92-3.6a24.64,24.64,0,0,1,5.04-2.16c-.29-1.246-.906-1.3-1.2-2.4-1.755.409-3.69,2.008-5.52,2.16-.4-1.5-3.49-5.631-4.32-7.2,1.592-.764,3.509-1.35,5.04-2.16a6.3,6.3,0,0,0-1.2-2.16c-1.953.162-3.567,1.757-5.52,1.92-.4-1.5-3.49-5.631-4.32-7.2,1.754-.409,3.241-1.77,5.04-1.92a3.362,3.362,0,0,0-1.44-2.4,24.645,24.645,0,0,0-5.04,2.16,17.054,17.054,0,0,0-1.105-1.775L24.486,83.44c1.72-.143,3.363-1.529,5.04-1.92a4.722,4.722,0,0,0-1.2-2.4,28.656,28.656,0,0,0-5.28,2.16l-3.314-5.326a3.851,3.851,0,0,1-1.006-2.114c1.72-.143,3.363-1.529,5.04-1.92-.424-.8-.946-1.662-1.44-2.4a24.329,24.329,0,0,1-5.28,2.16c-.733-1.094-4.023-5.923-4.32-7.2,1.531-.811,3.448-1.4,5.04-2.16-1.47-2.777-1.389-2.376-4.073-1.193a9.314,9.314,0,0,1-2.647.953L7.732,56.754A5.278,5.278,0,0,1,6.726,54.88a24.64,24.64,0,0,0,5.04-2.16c-.4-.754-.785-1.376-1.2-2.16-1.381.115-4.242,1.547-5.52,2.16-.127-.475-1.286-2.64-1.68-2.64C2.143,50.08,1.741,51.04.006,51.04Z" transform="translate(261.834 -50.08)"/>
    <path class="cls-1" d="M-208.074,113.44h-22.8c1.612-3.046,7.683-20.485,9.6-24.48h-22.56a18.22,18.22,0,0,1-1.041,2.559c-.409.874-.725,1.7-1.117,2.483-2.1,4.22-4.717,10.546-6.884,15.2l-6.765,15.075c-.4.976-.668,1.473-1.095,2.5a8.755,8.755,0,0,0-1.1,2.741h84.24a28.819,28.819,0,0,0-1.646-4.114l-5.232-12.288c-2.468-5.531-4.642-10.982-7.049-16.471L-205.434,63.76h-26.88c2.129,4.024,4,8.238,6.08,12.4,1.055,2.11,1.9,4.044,2.96,6.16,1.074,2.146,2.119,4.075,3.121,6.239Z" transform="translate(261.834 -50.08)"/>
    <path class="cls-1" d="M-106.794,70.96c0,4.316,2.569,8.088,5.222,11.1,3.1,3.514,5.8,5.279,8.638,7.922,2.1,1.956,6.994,5.793,8.885,7.675,3.035,3.02,7.016,5.417,7.016,10.265,0,2.363-2.433,4.523-4.076,5.283a21.671,21.671,0,0,1-7.924,1.436h-22.32v15.12c0,.553.167.72.72.72h26.16c7.917,0,18.079-1.852,24.346-6.614.68-.517,1.408-1.057,2-1.6,8.315-7.7,8.935-17.7,2.048-26.894-4.854-6.48-11.669-11.105-17.647-16.433-10.2-9.095-6.9-8.787-6.9-14.216h-25.2A28.967,28.967,0,0,0-106.794,70.96Z" transform="translate(261.834 -50.08)"/>
    <path class="cls-1" d="M-174.892,130.241c2.132.667,25.509.19,29.753.19l-.006-22.279c-.011-.947-.209-1.414.457-1.612.268-.08,7.88-.19,8.354-.131,5.082.9,15.577-2.154,20.728-5.865a27.36,27.36,0,0,0,6.344-6.855c4.794-8.165,2.934-16.37-3.266-22.753-10.429-10.739-28.513-8.921-44.426-8.921-5.317,0-12.908-.444-17.95.062l.039,2.261c13.989.635,40.22-1.726,51.5,2.548,20.781,7.87,17.868,33.176-7.339,36.8-6.471.93-14.9.286-17.279.717l-.005,23.859h-23.91l-.056-39.318h21.716c4.969,0,17.8,1.2,15.686-5.835-1.377-4.586-13.564-3.379-18.566-3.379-3.775,0-19.409-.182-21.79.079v2.209c2.353.241,25.232.055,29.71.063,2.128,0,7.783-.4,7.853,2.1.078,2.791-5.035,2.394-7.373,2.409-8.447.052-23.293-.448-30.172.045Z" transform="translate(261.834 -50.08)"/>
    <path class="cls-1" d="M-167.861,131.92l-.159.715,25.707,0c0-7.371-.345-15.57-.03-22.831.055-1.271.169-1.188,1.443-1.2,11.191-.081,25.061.891,33.152-9.808a17.317,17.317,0,0,0,3.738-7.782c.577-3.252.049-7.329-1.253-9.5.248,4.728.026,9.874-2.029,13.654a21.163,21.163,0,0,1-8.106,8.219c-7.314,4.126-18.678,4.435-28.14,4.435v23.925Z" transform="translate(261.834 -50.08)"/>
    <path class="cls-1" d="M-138.844,84.16c-.589-.771-1.979-.723-2.9-.8-3.831-.308-25.565-.261-26.174.078l-.087.719Z" transform="translate(261.834 -50.08)"/>
  </g>
</svg>
